<svg width="348" height="349" viewBox="0 0 348 349" fill="none" xmlns="http://www.w3.org/2000/svg">
<path d="M70.3507 158.641C69.2309 162.584 61.8871 173.313 59.0694 176.698C56.2465 180.084 45.5226 185.167 44.9549 188.552C44.3924 191.938 49.4705 206.047 56.809 208.302C64.1476 210.558 70.9236 210.563 73.1788 213.38C75.4392 216.198 89.5434 234.261 86.158 243.297C84.309 248.224 80.7882 261.427 78.3299 274.912C86.2517 276.693 94.1944 277.922 101.965 278.485C112.882 258.433 138.507 205.365 148.872 186.474C149.819 184.735 150.877 182.875 152.017 180.927C144.382 165.834 135.299 149.334 131.877 145.651C128.236 142.094 112.017 118.985 105.455 119.308C105.413 119.308 105.372 119.313 105.34 119.318C102.845 120 106.481 143.396 106.481 143.396C106.481 143.396 88.8246 118.99 84.8976 118.99C84.7257 118.99 84.5851 119.037 84.4757 119.125C81.6476 121.391 83.1788 140.589 88.4236 149.604C85.0278 151.865 71.4757 154.688 70.3507 158.641Z" fill="#186AA2"/>
<path d="M117.064 278.552C124.71 278 132.023 276.651 138.778 274.313C138.783 274.313 138.783 274.313 138.783 274.313C152.288 269.636 164.46 262.433 174.944 252.896C183.689 244.943 191.825 239.63 199.127 237.104C214.231 231.88 222.418 239.198 225.241 242.589C231.33 249.907 231.918 261.474 226.679 270.714C223.247 276.766 219.429 282.146 215.054 287C222.465 283.896 231.663 278.5 239.273 269.245C239.46 269.016 239.627 268.797 239.809 268.573C236.559 254.99 238.814 243.802 242.319 233.433C244.929 225.714 256.351 223.287 277.658 223.287C293.069 223.287 304.085 218.287 310.408 208.438C316.622 198.755 317.116 186.625 316.257 179.729C316.002 177.693 314.314 176.157 312.273 176.068C311.382 176.032 310.491 176 309.731 175.979C305.814 175.87 301.372 175.745 297.106 174.594C284.46 171.188 272.611 160.854 264.601 146.245C262.095 141.677 252.627 139.62 245.017 137.974C241.95 137.313 239.049 136.683 236.382 135.88C227.236 133.141 221.595 122.875 215.622 112.011C214.205 109.427 212.767 106.813 211.299 104.334C210.575 103.104 208.809 103.047 208.002 104.219C194.002 124.532 199.851 141.073 197.835 142.308C192.007 144.974 169.663 173.25 160.309 192.11C151.043 210.802 127.986 258.985 117.064 278.552Z" fill="#186AA2"/>
<path d="M18.9756 252.755C28.5589 258.193 39.2569 263.172 50.4652 267.297C40.8402 254.62 33.0225 240.24 27.5433 224.406C-0.357719 143.75 42.559 55.4429 123.21 27.5367C203.861 -0.364385 292.174 42.5523 320.075 123.203C334.528 164.985 329.97 208.818 311.017 245.245C316.903 244.849 322.694 247.308 326.642 252.115C327.116 252.698 327.543 253.302 327.944 253.922C349.184 213.037 354.272 163.86 338.059 116.985C306.726 26.4221 207.554 -21.7654 116.991 9.5627C26.4287 40.8908 -21.7692 140.057 9.56416 230.625C12.2256 238.318 15.3871 245.698 18.9756 252.755Z" fill="#00BF63"/>
<path d="M302.533 264.328C306.799 249.594 292.981 241.37 281.465 261.88C286.226 249.417 275.653 239.599 265.569 250.063C258.747 257.146 257.726 264.37 247.882 276.334C225.335 303.735 188.241 306.625 176.293 300.823C197.22 291.099 208.408 280.328 216.981 265.214C223.892 253.037 214.387 232.104 182.444 261.151C132.465 306.599 59.2257 294.386 27.0798 269.86C69.8767 334.74 152.622 365.042 229.455 338.459C267.642 325.25 298.293 300.084 318.679 268.604C324.017 259.49 310.226 248.584 302.533 264.328Z" fill="#00BF63"/>
<path d="M214.955 72.5784C213.392 69.7086 210.861 66.8075 207.512 66.2138C194.147 63.844 189.319 58.3023 217.517 42.5263C201.095 37.4169 182.335 52.0211 176.689 62.6669C163.064 53.7502 148.548 55.8492 137.486 34.9534C125.7 58.8492 147.168 81.0992 147.168 81.0992C147.168 81.0992 110.533 99.9898 100.554 107.511C99.4131 108.365 100.267 110.162 101.653 109.823C116.923 106.11 139.996 87.5992 162.772 94.818C167.304 96.6044 173.007 97.5107 179.153 97.1721C191.033 96.5055 200.772 91.3805 203.325 85.0211C204.517 85.1773 205.752 85.12 206.991 84.8127C209.741 84.1252 212.382 82.6721 213.84 80.5263C214.627 79.37 215.856 78.5888 217.22 78.2815C218.601 77.9742 219.944 77.6773 221.335 77.7242C221.507 74.5419 216.611 75.6096 214.955 72.5784Z" fill="#186AA2"/>
</svg>
